<?xml version="1.0" encoding="UTF-8" standalone="no"?>
<!-- Created with Inkscape (http://www.inkscape.org/) -->

<svg
   xmlns:dc="http://purl.org/dc/elements/1.1/"
   xmlns:cc="http://creativecommons.org/ns#"
   xmlns:rdf="http://www.w3.org/1999/02/22-rdf-syntax-ns#"
   xmlns:svg="http://www.w3.org/2000/svg"
   xmlns="http://www.w3.org/2000/svg"
   xmlns:sodipodi="http://sodipodi.sourceforge.net/DTD/sodipodi-0.dtd"
   xmlns:inkscape="http://www.inkscape.org/namespaces/inkscape"
   version="1.1"
   id="svg2"
   xml:space="preserve"
   width="377.94666"
   height="377.94666"
   viewBox="0 0 377.94666 377.94666"
   sodipodi:docname="191488_47ee80c91da646da9060148491cef445 (cópia).ai"
   inkscape:version="0.92.4 (5da689c313, 2019-01-14)"><metadata
     id="metadata8"><rdf:RDF><cc:Work
         rdf:about=""><dc:format>image/svg+xml</dc:format><dc:type
           rdf:resource="http://purl.org/dc/dcmitype/StillImage" /><dc:title></dc:title></cc:Work></rdf:RDF></metadata><defs
     id="defs6"><clipPath
       clipPathUnits="userSpaceOnUse"
       id="clipPath18"><path
         d="M 0,283.46 H 283.46 V 0 H 0 Z"
         id="path16"
         inkscape:connector-curvature="0" /></clipPath></defs><sodipodi:namedview
     pagecolor="#ffffff"
     bordercolor="#666666"
     borderopacity="1"
     objecttolerance="10"
     gridtolerance="10"
     guidetolerance="10"
     inkscape:pageopacity="0"
     inkscape:pageshadow="2"
     inkscape:window-width="1296"
     inkscape:window-height="704"
     id="namedview4"
     showgrid="false"
     inkscape:zoom="0.62442675"
     inkscape:cx="188.97333"
     inkscape:cy="188.97333"
     inkscape:window-x="70"
     inkscape:window-y="27"
     inkscape:window-maximized="1"
     inkscape:current-layer="g10" /><g
     id="g10"
     inkscape:groupmode="layer"
     inkscape:label="191488_47ee80c91da646da9060148491cef445 (cópia)"
     transform="matrix(1.3333333,0,0,-1.3333333,0,377.94667)"><g
       id="g12"><g
         id="g14"
         clip-path="url(#clipPath18)"><g
           id="g20"
           transform="translate(251.0556,214.9445)"><path
             d="m 0,0 c 0,0 -0.707,0.935 -2.033,2.687 -1.354,1.726 -3.181,4.405 -5.911,7.447 -1.356,1.529 -2.739,3.314 -4.453,5.08 -1.724,1.753 -3.589,3.649 -5.581,5.675 -2.122,1.884 -4.379,3.888 -6.758,6.002 -2.511,1.952 -5.11,4.054 -7.899,6.136 -5.732,3.951 -12.048,8.105 -19.23,11.556 -3.507,1.891 -7.324,3.368 -11.17,4.986 -0.951,0.429 -1.949,0.756 -2.95,1.089 -0.997,0.341 -1.999,0.685 -3.006,1.03 -2.014,0.686 -4.027,1.443 -6.139,1.94 -2.091,0.56 -4.2,1.124 -6.325,1.692 -2.148,0.465 -4.33,0.849 -6.514,1.283 -1.095,0.2 -2.185,0.449 -3.292,0.611 -1.112,0.133 -2.227,0.267 -3.345,0.401 -2.238,0.234 -4.47,0.644 -6.738,0.759 -2.267,0.121 -4.544,0.242 -6.827,0.363 -1.141,0.094 -2.286,0.072 -3.432,0.039 l -3.442,-0.066 -3.448,-0.064 c -1.151,-0.007 -2.294,-0.185 -3.443,-0.268 l -6.811,-0.621 -6.937,-1.115 c -1.144,-0.206 -2.336,-0.324 -3.439,-0.602 l -3.329,-0.788 -3.324,-0.785 c -1.108,-0.25 -2.214,-0.51 -3.299,-0.884 -2.182,-0.684 -4.357,-1.366 -6.524,-2.046 -2.168,-0.675 -4.231,-1.62 -6.338,-2.41 -1.049,-0.407 -2.096,-0.812 -3.14,-1.217 -1.033,-0.431 -2.027,-0.943 -3.039,-1.408 -2.007,-0.962 -4.026,-1.875 -5.992,-2.858 -1.917,-1.077 -3.82,-2.147 -5.708,-3.207 -1.923,-1.005 -3.685,-2.238 -5.466,-3.402 -0.889,-0.584 -1.774,-1.166 -2.655,-1.746 -0.887,-0.57 -1.772,-1.134 -2.588,-1.786 -3.324,-2.52 -6.656,-4.897 -9.584,-7.599 -6.103,-5.123 -11.188,-10.715 -15.763,-15.963 -2.186,-2.708 -4.185,-5.387 -6.13,-7.903 -1.781,-2.637 -3.471,-5.138 -5.059,-7.489 -1.429,-2.456 -2.765,-4.755 -4.001,-6.881 -1.223,-2.136 -2.124,-4.214 -3.058,-6.033 -1.894,-3.631 -2.992,-6.66 -3.878,-8.67 -0.85,-2.027 -1.304,-3.108 -1.304,-3.108 0,0 0.379,1.108 1.089,3.187 0.763,2.059 1.602,5.201 3.343,8.93 0.845,1.873 1.648,4.016 2.77,6.228 1.138,2.209 2.369,4.597 3.684,7.149 1.486,2.461 3.068,5.079 4.735,7.84 1.841,2.647 3.799,5.426 5.915,8.27 4.445,5.513 9.436,11.416 15.561,16.803 2.928,2.843 6.27,5.37 9.616,8.045 1.657,1.361 3.518,2.481 5.305,3.741 1.811,1.225 3.605,2.518 5.563,3.585 1.924,1.122 3.865,2.253 5.819,3.392 2.006,1.044 4.068,2.019 6.121,3.042 1.034,0.495 2.052,1.037 3.108,1.499 1.069,0.435 2.141,0.871 3.215,1.308 2.166,0.828 4.291,1.808 6.522,2.519 2.23,0.712 4.47,1.427 6.716,2.145 1.111,0.388 2.267,0.669 3.429,0.939 l 3.478,0.839 3.487,0.837 c 1.165,0.295 2.31,0.411 3.467,0.626 l 6.932,1.146 7.184,0.628 c 1.185,0.08 2.365,0.254 3.552,0.256 l 3.558,0.05 3.55,0.048 c 1.182,0.027 2.363,0.042 3.539,-0.059 2.354,-0.138 4.701,-0.275 7.038,-0.412 1.172,-0.033 2.327,-0.226 3.484,-0.369 1.155,-0.153 2.308,-0.305 3.459,-0.457 1.149,-0.157 2.295,-0.314 3.438,-0.47 1.138,-0.185 2.258,-0.458 3.383,-0.682 2.243,-0.481 4.482,-0.914 6.684,-1.428 2.176,-0.618 4.336,-1.233 6.479,-1.842 2.161,-0.548 4.219,-1.356 6.278,-2.094 2.043,-0.776 4.121,-1.405 6.065,-2.31 3.905,-1.761 7.77,-3.38 11.311,-5.408 7.269,-3.699 13.567,-8.182 19.241,-12.419 2.755,-2.23 5.343,-4.434 7.78,-6.544 2.3,-2.261 4.482,-4.405 6.533,-6.42 1.907,-2.146 3.692,-4.154 5.343,-6.01 1.636,-1.866 2.95,-3.748 4.233,-5.353 C -4.678,7.444 -3.099,4.626 -1.847,2.819 -0.642,0.98 0,0 0,0"
             style="fill:#006aae;fill-opacity:1;fill-rule:nonzero;stroke:none"
             id="path22"
             inkscape:connector-curvature="0" /></g><g
           id="g24"
           transform="translate(14.1919,92.005)"><path
             d="m 0,0 c 0,0 0.575,-1.253 1.652,-3.604 0.515,-1.187 1.25,-2.602 2.102,-4.266 0.823,-1.678 1.874,-3.553 3.043,-5.655 2.398,-4.166 5.442,-9.161 9.493,-14.482 4.035,-5.323 8.967,-11.038 14.864,-16.735 5.923,-5.667 12.868,-11.25 20.747,-16.324 7.928,-4.984 16.754,-9.514 26.336,-13.006 9.552,-3.568 19.868,-5.995 30.474,-7.28 5.303,-0.674 10.696,-0.887 16.099,-0.915 5.409,0.019 10.828,0.438 16.219,1.066 5.436,0.743 10.722,1.666 15.975,2.991 5.228,1.368 10.399,2.91 15.37,4.879 9.952,3.882 19.347,8.785 27.715,14.612 2.129,1.403 4.114,2.972 6.129,4.459 0.974,0.787 1.943,1.571 2.907,2.351 0.978,0.764 1.926,1.554 2.84,2.374 3.767,3.158 7.155,6.58 10.409,9.948 6.375,6.868 11.718,13.998 16.051,20.956 4.301,6.981 7.658,13.742 10.25,19.899 2.606,6.158 4.317,11.751 5.607,16.382 0.612,2.326 1.164,4.403 1.547,6.235 0.413,1.825 0.773,3.377 0.978,4.652 0.461,2.544 0.707,3.9 0.707,3.9 0,0 -0.167,-1.369 -0.48,-3.936 -0.132,-1.289 -0.401,-2.861 -0.71,-4.714 -0.266,-1.862 -0.723,-3.972 -1.244,-6.336 -1.095,-4.709 -2.575,-10.421 -4.94,-16.758 -2.336,-6.34 -5.442,-13.355 -9.676,-20.55 -4.221,-7.196 -9.475,-14.611 -15.811,-21.808 -6.406,-7.116 -13.824,-14.109 -22.431,-20.106 -4.253,-3.063 -8.804,-5.86 -13.538,-8.451 -4.712,-2.639 -9.714,-4.876 -14.831,-6.914 -5.117,-2.052 -10.442,-3.67 -15.83,-5.103 -2.709,-0.655 -5.421,-1.319 -8.206,-1.811 -2.808,-0.596 -5.435,-0.9 -8.26,-1.343 -5.564,-0.625 -11.155,-1.031 -16.735,-1.026 -5.574,0.053 -11.134,0.3 -16.601,1.018 -5.462,0.705 -10.861,1.639 -16.081,3.024 -5.228,1.335 -10.33,2.916 -15.21,4.829 -9.826,3.673 -18.742,8.615 -26.715,13.916 -7.922,5.399 -14.851,11.279 -20.725,17.202 -5.887,5.92 -10.632,11.948 -14.47,17.508 -3.863,5.553 -6.714,10.718 -8.944,15.009 -1.091,2.16 -2.057,4.091 -2.777,5.831 C 2.54,-6.363 1.888,-4.907 1.442,-3.693 0.502,-1.285 0,0 0,0"
             style="fill:#006aae;fill-opacity:1;fill-rule:nonzero;stroke:none"
             id="path26"
             inkscape:connector-curvature="0" /></g><g
           id="g28"
           transform="translate(37.0816,92.8041)"><path
             d="m 0,0 c 1.098,-2.583 3.146,-2.709 4.539,-2.117 1.389,0.592 2.705,2.12 1.595,4.728 L 0.974,14.735 -5.16,12.124 Z M 2.247,18.504 8.484,3.848 c 1.767,-4.15 0.7,-7.302 -2.453,-8.645 -2.437,-1.037 -4.557,-0.325 -6.127,1.706 0.295,-2.486 -0.737,-4.128 -2.599,-4.921 l -3.256,-1.385 -1.204,2.832 3.302,1.407 c 1.367,0.582 2.315,2.011 1.288,4.421 l -5.03,11.825 -5.988,-2.547 -1.164,2.732 z"
             style="fill:#a7cb81;fill-opacity:1;fill-rule:nonzero;stroke:none"
             id="path30"
             inkscape:connector-curvature="0" /></g><g
           id="g32"
           transform="translate(54.3704,66.2519)"><path
             d="m 0,0 c 4.628,3.422 3.357,6.685 -0.452,11.834 -3.808,5.148 -6.555,7.318 -11.182,3.895 -4.651,-3.439 -3.36,-6.685 0.452,-11.833 C -7.374,-1.255 -4.649,-3.439 0,0 m 1.815,-2.455 c -5.93,-4.387 -10.251,-2.136 -15.279,4.662 -5.03,6.801 -5.918,11.59 0.013,15.977 5.91,4.37 10.23,2.12 15.258,-4.679 5.03,-6.8 5.917,-11.589 0.008,-15.96"
             style="fill:#a7cb81;fill-opacity:1;fill-rule:nonzero;stroke:none"
             id="path34"
             inkscape:connector-curvature="0" /></g><g
           id="g36"
           transform="translate(79.8477,51.9785)"><path
             d="m 0,0 -11.13,9.392 c -3.617,3.05 -5.794,2.061 -8.495,-1.141 -2.7,-3.2 -3.272,-5.513 0.322,-8.544 l 11.131,-9.392 -1.883,-2.231 -11.131,9.394 c -4.893,4.128 -4.745,8.035 -0.773,12.743 3.958,4.687 7.778,5.528 12.692,1.38 L 1.865,2.209 Z"
             style="fill:#a7cb81;fill-opacity:1;fill-rule:nonzero;stroke:none"
             id="path38"
             inkscape:connector-curvature="0" /></g><g
           id="g40"
           transform="translate(91.6499,28.3492)"><path
             d="m 0,0 3.591,7.051 -14.92,7.595 -3.591,-7.051 -2.67,1.358 8.378,16.462 2.67,-1.36 -3.577,-7.027 L 4.802,9.433 8.38,16.46 11.027,15.113 2.646,-1.347 Z"
             style="fill:#a7cb81;fill-opacity:1;fill-rule:nonzero;stroke:none"
             id="path42"
             inkscape:connector-curvature="0" /></g><g
           id="g44"
           transform="translate(116.8931,35.4085)"><path
             d="M 0,0 C -0.28,1.236 -0.795,2.087 -2.079,2.402 -3.34,2.712 -4.189,2.198 -5.012,1.23 l -4.767,-5.589 11.39,-2.798 z m 6.655,-16.298 -3.097,0.76 -1.242,5.482 -14.039,3.447 -3.639,-4.282 -3.096,0.762 10.762,12.66 C -5.97,4.581 -4.23,5.658 -1.447,4.974 1.36,4.285 2.376,2.532 2.984,-0.094 Z"
             style="fill:#a7cb81;fill-opacity:1;fill-rule:nonzero;stroke:none"
             id="path46"
             inkscape:connector-curvature="0" /></g><g
           id="g48"
           transform="translate(141.0482,18.6094)"><path
             d="m 0,0 -0.27,15.78 -9.539,-0.165 -0.046,2.702 22.05,0.38 0.044,-2.702 L 2.702,15.83 2.974,0.051 Z"
             style="fill:#a7cb81;fill-opacity:1;fill-rule:nonzero;stroke:none"
             id="path50"
             inkscape:connector-curvature="0" /></g><g
           id="g52"
           transform="translate(161.3291,36.2724)"><path
             d="m 0,0 c -4.001,-0.913 -5.038,-2.923 -4.502,-6.235 l 19.456,4.438 0.594,-2.606 -19.457,-4.438 c 0.95,-3.192 2.75,-4.526 6.753,-3.614 l 14.191,3.238 0.636,-2.791 -14.192,-3.237 c -6.267,-1.429 -9.274,1.07 -10.639,7.047 -1.362,5.977 0.264,9.533 6.532,10.963 l 14.191,3.238 0.631,-2.767 z"
             style="fill:#a7cb81;fill-opacity:1;fill-rule:nonzero;stroke:none"
             id="path54"
             inkscape:connector-curvature="0" /></g><g
           id="g56"
           transform="translate(199.4659,43.8509)"><path
             d="m 0,0 c -2.534,5.168 -5.973,4.506 -11.721,1.687 -5.751,-2.82 -8.38,-5.131 -5.846,-10.299 2.545,-5.193 5.971,-4.507 11.721,-1.687 C -0.096,-7.48 2.544,-5.193 0,0 m 2.74,1.344 c 3.248,-6.624 0.257,-10.467 -7.336,-14.191 -7.597,-3.723 -12.465,-3.733 -15.715,2.891 -3.236,6.599 -0.244,10.444 7.351,14.166 7.595,3.723 12.464,3.735 15.7,-2.866"
             style="fill:#a7cb81;fill-opacity:1;fill-rule:nonzero;stroke:none"
             id="path58"
             inkscape:connector-curvature="0" /></g><g
           id="g60"
           transform="translate(212.3447,61.6095)"><path
             d="m 0,0 -9.291,-7.748 8.111,-9.729 9.291,7.749 c 3.632,3.026 3.037,5.344 0.373,8.538 C 5.836,1.983 3.629,3.027 0,0 M -13.421,-7.432 -1.85,2.219 c 4.938,4.117 8.767,3.233 12.678,-1.456 3.943,-4.728 4.069,-8.632 -0.847,-12.73 L -1.593,-21.62 Z"
             style="fill:#a7cb81;fill-opacity:1;fill-rule:nonzero;stroke:none"
             id="path62"
             inkscape:connector-curvature="0" /></g><g
           id="g64"
           transform="translate(238.2473,82.2515)"><path
             d="m 0,0 c -4.633,3.414 -7.376,1.24 -11.176,-3.917 -3.798,-5.155 -5.063,-8.419 -0.43,-11.834 4.657,-3.43 7.379,-1.241 11.177,3.916 C 3.371,-6.678 4.657,-3.432 0,0 m 1.813,2.458 c 5.939,-4.377 5.06,-9.168 0.042,-15.976 -5.017,-6.811 -9.333,-9.068 -15.271,-4.691 -5.917,4.359 -5.038,9.15 -0.022,15.96 5.017,6.809 9.331,9.066 15.251,4.707"
             style="fill:#a7cb81;fill-opacity:1;fill-rule:nonzero;stroke:none"
             id="path66"
             inkscape:connector-curvature="0" /></g><g
           id="g68"
           transform="translate(247.7877,102.4698)"><path
             d="M 0,0 C 1.086,2.592 -0.252,4.15 -1.649,4.735 -3.04,5.32 -5.056,5.2 -6.156,2.583 l -5.101,-12.155 6.151,-2.583 z m -14.847,-11.288 6.169,14.697 c 1.744,4.16 4.749,5.594 7.915,4.267 C 1.678,6.65 2.646,4.633 2.283,2.089 3.859,4.034 5.759,4.44 7.626,3.655 L 10.891,2.285 9.697,-0.556 6.387,0.836 C 5.013,1.411 3.329,1.093 2.315,-1.322 L -2.664,-13.18 3.34,-15.7 2.189,-18.439 Z"
             style="fill:#a7cb81;fill-opacity:1;fill-rule:nonzero;stroke:none"
             id="path70"
             inkscape:connector-curvature="0" /></g><g
           id="g72"
           transform="translate(254.8107,133.3297)"><path
             d="m 0,0 c -5.678,0.941 -7.133,-2.239 -8.182,-8.555 -1.045,-6.314 -0.691,-9.795 4.984,-10.735 5.702,-0.945 7.133,2.24 8.18,8.554 C 6.027,-4.422 5.701,-0.945 0,0 M 0.496,3.012 C 7.771,1.805 9.161,-2.859 7.78,-11.199 6.397,-19.539 3.577,-23.506 -3.698,-22.302 c -7.245,1.202 -8.637,5.867 -7.254,14.207 1.384,8.339 4.203,12.307 11.448,11.107"
             style="fill:#a7cb81;fill-opacity:1;fill-rule:nonzero;stroke:none"
             id="path74"
             inkscape:connector-curvature="0" /></g><g
           id="g76"
           transform="translate(167.5439,220.9209)"><path
             d="m 0,0 1.046,1.711 c -1.199,0.495 -2.426,0.974 -3.713,1.401 -3.527,1.267 -7.356,2.328 -11.386,3.085 -1.01,0.181 -2.028,0.362 -3.054,0.545 -1.033,0.132 -2.075,0.265 -3.122,0.399 -2.094,0.287 -4.236,0.384 -6.39,0.481 -4.315,0.136 -8.699,-0.11 -13.059,-0.577 -2.234,-0.37 -4.225,-0.603 -6.439,-1.119 -2.182,-0.416 -4.274,-0.995 -6.355,-1.558 -2.062,-0.629 -4.116,-1.247 -6.072,-2.048 -0.982,-0.389 -1.958,-0.777 -2.926,-1.161 -0.949,-0.432 -1.89,-0.86 -2.824,-1.285 -0.941,-0.407 -1.84,-0.884 -2.733,-1.349 -0.89,-0.469 -1.788,-0.904 -2.634,-1.412 -1.687,-1.023 -3.364,-1.971 -4.899,-3.051 -3.154,-2.028 -5.892,-4.288 -8.362,-6.407 -1.217,-1.082 -2.344,-2.162 -3.421,-3.177 -1.02,-1.074 -1.987,-2.092 -2.895,-3.049 -1.743,-1.981 -3.205,-3.745 -4.315,-5.272 -1.175,-1.473 -1.936,-2.752 -2.509,-3.578 -0.558,-0.837 -0.855,-1.283 -0.855,-1.283 0,0 0.361,0.398 1.037,1.143 0.681,0.74 1.643,1.851 2.966,3.172 1.274,1.364 2.939,2.901 4.819,4.673 0.98,0.841 2.024,1.737 3.123,2.68 1.15,0.882 2.313,1.859 3.58,2.807 2.568,1.853 5.375,3.816 8.507,5.616 3.1,1.852 6.522,3.523 10.116,5.09 3.584,1.609 7.469,2.793 11.405,3.962 1.992,0.513 4,1.043 6.013,1.402 1.943,0.448 4.213,0.692 6.202,1.012 4.145,0.489 8.318,0.774 12.431,0.692 4.103,-0.148 8.161,-0.338 12.032,-1.007 3.87,-0.627 7.602,-1.392 11.063,-2.421 0.995,-0.277 1.962,-0.576 2.912,-0.884 l 0.218,0.472 z"
             style="fill:#006aae;fill-opacity:1;fill-rule:nonzero;stroke:none"
             id="path78"
             inkscape:connector-curvature="0" /></g><g
           id="g80"
           transform="translate(67.0826,96.7075)"><path
             d="m 0,0 c -0.843,1.172 -1.292,1.797 -1.292,1.797 0,0 0.383,-0.668 1.1,-1.92 0.661,-1.082 1.447,-2.686 2.713,-4.542 0.219,0.124 0.444,0.247 0.675,0.367 C 1.761,-2.551 0.765,-1.022 0,0"
             style="fill:#006aae;fill-opacity:1;fill-rule:nonzero;stroke:none"
             id="path82"
             inkscape:connector-curvature="0" /></g><g
           id="g84"
           transform="translate(219.3014,115.8808)"><path
             d="m 0,0 c -0.552,-1.334 -1.217,-3.339 -2.412,-5.745 -0.587,-1.206 -1.147,-2.578 -1.919,-3.994 -0.06,-0.108 -0.126,-0.229 -0.186,-0.338 0.236,-0.618 0.395,-1.282 0.473,-1.984 0.279,0.614 0.558,1.225 0.822,1.803 0.655,1.496 1.105,2.935 1.59,4.197 1.008,2.512 1.429,4.612 1.851,5.991 C 0.603,1.32 0.807,2.062 0.807,2.062 0.807,2.062 0.527,1.345 0,0"
             style="fill:#006aae;fill-opacity:1;fill-rule:nonzero;stroke:none"
             id="path86"
             inkscape:connector-curvature="0" /></g><g
           id="g88"
           transform="translate(183.4987,71.9708)"><path
             d="m 0,0 c -0.442,-0.279 -0.885,-0.557 -1.333,-0.832 -4.788,-3.001 -10.183,-5.266 -15.702,-7.341 -5.628,-1.975 -11.285,-3.198 -17.483,-4.088 -5.805,-0.633 -11.937,-0.886 -17.794,-0.358 -5.862,0.634 -11.65,1.497 -17.033,3.216 -1.372,0.335 -2.676,0.847 -3.982,1.309 -1.292,0.497 -2.623,0.868 -3.863,1.426 -2.491,1.084 -4.968,2.077 -7.234,3.347 -2.559,1.28 -4.93,2.701 -7.174,4.159 -0.863,-0.557 -1.751,-1.053 -2.657,-1.494 2.543,-1.904 5.294,-3.776 8.329,-5.427 2.301,-1.41 4.826,-2.547 7.378,-3.778 1.269,-0.633 2.634,-1.079 3.975,-1.62 1.351,-0.516 2.702,-1.08 4.125,-1.468 1.41,-0.429 2.832,-0.862 4.264,-1.297 1.452,-0.364 2.929,-0.674 4.408,-1.015 0.743,-0.16 1.481,-0.353 2.233,-0.485 l 2.272,-0.341 c 1.522,-0.198 3.044,-0.492 4.591,-0.593 1.547,-0.103 3.1,-0.206 4.658,-0.309 1.557,-0.131 3.126,-0.016 4.694,-0.034 1.57,0.005 3.143,0.007 4.708,0.184 l 4.787,0.408 c 5.973,0.883 12.374,2.306 18.163,4.411 1.474,0.48 2.874,1.147 4.302,1.709 l 2.117,0.895 c 0.696,0.314 1.363,0.685 2.043,1.023 1.348,0.698 2.703,1.364 4.018,2.077 1.28,0.777 2.55,1.549 3.81,2.315 0.526,0.298 1.029,0.626 1.525,0.962 l -1.79,2.502 C 0.226,-0.358 0.121,-0.179 0,0"
             style="fill:#006aae;fill-opacity:1;fill-rule:nonzero;stroke:none"
             id="path90"
             inkscape:connector-curvature="0" /></g><g
           id="g92"
           transform="translate(41.3037,194.2368)"><path
             d="m 0,0 -5.36,-13.537 c -1.74,-4.396 -0.108,-6.147 3.786,-7.687 3.892,-1.541 6.266,-1.347 7.994,3.024 l 5.361,13.536 2.713,-1.073 -5.361,-13.54 c -2.356,-5.951 -6.105,-7.054 -11.832,-4.786 -5.701,2.257 -7.715,5.61 -5.348,11.59 l 5.36,13.536 z"
             style="fill:#a7cb81;fill-opacity:1;fill-rule:nonzero;stroke:none"
             id="path94"
             inkscape:connector-curvature="0" /></g><g
           id="g96"
           transform="translate(43.277,202.6397)"><path
             d="m 0,0 9.006,-6.362 c 2.783,-1.963 4.582,-1.381 7.059,2.128 l 7.032,9.955 2.385,-1.684 -7.031,-9.955 c -3.477,-4.923 -6.81,-5.944 -11.159,-2.871 l -9.007,6.361 z"
             style="fill:#a7cb81;fill-opacity:1;fill-rule:nonzero;stroke:none"
             id="path98"
             inkscape:connector-curvature="0" /></g><g
           id="g100"
           transform="translate(64.6872,223.913)"><path
             d="M 0,0 C -3.108,-2.681 -3.083,-4.941 -1.058,-7.616 L 14.046,5.416 15.793,3.393 0.686,-9.641 c 2.334,-2.374 4.548,-2.709 7.656,-0.03 l 11.019,9.506 1.868,-2.164 -11.018,-9.506 c -4.866,-4.199 -8.693,-3.401 -12.697,1.241 -4.003,4.641 -4.23,8.543 0.633,12.74 l 11.019,9.506 1.852,-2.145 z"
             style="fill:#a7cb81;fill-opacity:1;fill-rule:nonzero;stroke:none"
             id="path102"
             inkscape:connector-curvature="0" /></g><g
           id="g104"
           transform="translate(80.7791,239.6076)"><path
             d="M 0,0 9.873,-15.604 7.364,-17.191 -2.511,-1.588 Z"
             style="fill:#a7cb81;fill-opacity:1;fill-rule:nonzero;stroke:none"
             id="path106"
             inkscape:connector-curvature="0" /></g><g
           id="g108"
           transform="translate(99.944,228.994)"><path
             d="m 0,0 -6.462,14.394 -8.7,-3.906 -1.106,2.463 20.109,9.03 L 4.949,19.516 -3.752,15.61 2.71,1.217 Z"
             style="fill:#a7cb81;fill-opacity:1;fill-rule:nonzero;stroke:none"
             id="path110"
             inkscape:connector-curvature="0" /></g><g
           id="g112"
           transform="translate(131.005,247.2373)"><path
             d="m 0,0 c -1.044,5.656 -4.529,5.948 -10.823,4.786 -6.291,-1.162 -9.446,-2.676 -8.401,-8.332 1.048,-5.683 4.528,-5.947 10.821,-4.786 C -2.11,-7.17 1.047,-5.683 0,0 m 3.002,0.554 c 1.335,-7.251 -2.58,-10.139 -10.89,-11.674 -8.311,-1.533 -13.001,-0.227 -14.337,7.022 -1.333,7.222 2.582,10.112 10.894,11.645 C -3.022,9.08 1.668,7.776 3.002,0.554"
             style="fill:#a7cb81;fill-opacity:1;fill-rule:nonzero;stroke:none"
             id="path114"
             inkscape:connector-curvature="0" /></g><g
           id="g116"
           transform="translate(140.3113,238.3893)"><path
             d="m 0,0 -2.986,0.274 1.68,18.398 2.259,-0.208 c 4.682,-0.427 5.828,-2.131 10.162,-9.306 4.098,-6.804 4.57,-7.579 6.99,-7.8 l 0.135,-0.013 1.408,15.411 2.987,-0.27 -1.681,-18.398 -2.259,0.206 C 14.31,-1.306 13.126,0.293 8.584,7.57 4.204,14.536 3.881,15.159 1.54,15.375 l -0.135,0.011 z"
             style="fill:#a7cb81;fill-opacity:1;fill-rule:nonzero;stroke:none"
             id="path118"
             inkscape:connector-curvature="0" /></g><g
           id="g120"
           transform="translate(180.2269,249.5437)"><path
             d="m 0,0 -4.415,-10.101 c -1.362,-3.119 -0.43,-4.763 3.505,-6.484 l 11.168,-4.88 -1.169,-2.672 -11.166,4.878 c -5.52,2.412 -7.191,5.472 -5.061,10.348 L -2.723,1.19 Z"
             style="fill:#a7cb81;fill-opacity:1;fill-rule:nonzero;stroke:none"
             id="path122"
             inkscape:connector-curvature="0" /></g><g
           id="g124"
           transform="translate(200.2902,240.2506)"><path
             d="m 0,0 2.372,-1.792 -5.814,-7.696 c -2.935,-3.88 -2.287,-6.029 2.91,-9.954 5.217,-3.943 7.44,-3.961 10.371,-0.081 l 5.814,7.698 2.394,-1.809 -5.816,-7.695 c -3.991,-5.284 -7.925,-5.426 -14.523,-0.442 -6.511,4.921 -7.547,8.75 -3.523,14.075 z"
             style="fill:#a7cb81;fill-opacity:1;fill-rule:nonzero;stroke:none"
             id="path126"
             inkscape:connector-curvature="0" /></g><g
           id="g128"
           transform="translate(224.0415,220.1625)"><path
             d="m 0,0 -13.349,-12.775 -2.054,2.145 13.347,12.775 z"
             style="fill:#a7cb81;fill-opacity:1;fill-rule:nonzero;stroke:none"
             id="path130"
             inkscape:connector-curvature="0" /></g><g
           id="g132"
           transform="translate(235.5964,200.5855)"><path
             d="m 0,0 c 0.068,0.046 0.155,0.109 0.221,0.155 l -10.317,14.57 2.16,1.528 12.239,-17.28 -1.83,-1.294 c -3.878,-2.748 -8.419,0.39 -12.498,3.393 -3.53,2.599 -6.725,5.102 -8.795,3.635 -0.068,-0.048 -0.157,-0.109 -0.221,-0.157 l 10.693,-15.099 -2.162,-1.529 -12.613,17.81 1.83,1.294 C -17.59,9.649 -13.449,6.888 -9.371,3.886 -5.206,0.811 -2.094,-1.484 0,0"
             style="fill:#a7cb81;fill-opacity:1;fill-rule:nonzero;stroke:none"
             id="path134"
             inkscape:connector-curvature="0" /></g><g
           id="g136"
           transform="translate(116.2735,194.4481)"><path
             d="m 0,0 c -0.123,-0.387 -0.293,-0.671 -0.281,-0.947 0.014,-0.32 0.012,-0.86 0.568,-0.68 0.275,0.089 0.694,0.566 0.642,0.675 C 0.776,-0.629 0.421,-0.403 0,0 m -5.759,-74.425 c 0.339,-0.142 0.678,-0.284 1.016,-0.425 0.984,2.367 1.967,4.735 2.951,7.102 -2.834,-1.529 -3.103,-4.243 -3.967,-6.677 m -29.116,13.802 c -0.159,3.772 -1.268,6.341 -3.53,8.422 0.59,-2.719 1.075,-5.471 3.53,-8.422 m 104.85,-25.386 c -0.876,2.951 -1.6,5.388 -2.408,8.11 -1.014,-2.065 1.387,-5.72 -4.484,-4.589 3.051,-1.559 4.726,-2.414 6.892,-3.521 m -28.133,23.548 c 4.156,0.133 8.355,0.387 11.15,-3.953 -1.791,5.352 -4.444,6.248 -11.15,3.953 m -66.327,17.203 c -2.528,-3.666 -2.801,-6.086 -1.336,-9.705 3.72,2.822 0.338,6.51 1.336,9.705 m 3.026,9.86 c 3.38,2.981 8.462,3.105 11.439,7.299 -1.097,-0.834 -1.697,1.459 -2.348,0.333 -1.748,-3.024 -4.968,-2.451 -7.512,-3.406 -2.261,-0.848 -3.273,-1.755 -1.579,-4.226 m 5.491,31.873 c 0.789,5.173 4.377,6.937 9.104,7.38 -5.283,0.26 -10.805,1.512 -14.158,-4.316 1.605,-1.195 2.981,-2.706 5.054,-3.064 m 77.453,-25.347 c -1.176,-2.859 -3.965,-3.497 -6.344,-4.453 -0.304,-1.786 2.403,-0.478 1.827,-1.881 -0.653,-1.593 -2.032,-2.729 -3.765,-3.373 -1.968,-0.731 -3.968,0.449 -5.878,-0.165 -0.371,-0.776 0.168,-1.016 0.634,-1.143 10.361,-2.84 19.393,-7.584 25.512,-16.917 2.521,-3.845 6.021,-6.818 10.392,-8.519 4.685,-1.824 7.856,0.228 8.327,5.245 0.36,3.831 -0.901,7.041 -3.452,9.883 -3.478,3.875 -6.667,7.947 -8.577,12.897 -2.204,5.714 -0.087,10.749 3.216,14.937 2.679,3.399 2.786,6.45 2.005,10.271 -1.001,4.9 0.046,9.387 3.909,13.143 0.663,-1.221 -0.239,-1.965 -0.119,-2.621 0.437,-2.382 -1.855,-5.53 2.668,-6.858 2.227,-0.654 1.29,-7.896 -1.092,-10.16 -1.932,-1.837 -3.959,-3.577 -5.988,-5.309 -1.253,-1.07 -2.04,-2.377 -2.389,-3.969 -2.352,-5.225 -0.896,-12.38 3.16,-16.185 0.843,-0.791 1.752,-0.416 2.598,-0.696 0.651,-2.171 2.949,-2.74 4.208,-4.325 3.314,-4.174 4.025,-8.94 2.698,-13.916 -1.731,-6.487 -8.115,-8.768 -14.284,-5.49 -2.789,1.483 -4.413,4.163 -6.817,6.014 -2.372,3.131 -4.348,6.641 -8.216,8.391 1.824,-3.114 3.649,-6.228 5.473,-9.342 -0.46,-2.386 1.572,-3.77 2.285,-5.685 0.62,-0.69 -1.264,-2.315 0.906,-2.426 0.061,-0.708 0.039,-1.446 0.716,-1.923 -0.106,-0.201 -0.053,-0.341 0.16,-0.421 -0.484,-3.19 2.941,-2.999 4.2,-4.785 3.174,-4.503 6.134,-9.442 12.014,-11.022 1.272,-0.342 1.724,-0.899 1.654,-2.193 -0.32,-5.977 0.243,-11.99 -1.004,-17.932 -0.822,-3.913 -2.173,-4.409 -6.031,-7.646 -2.608,-2.19 -4.772,-3.54 -7.763,-2.614 -1.628,0.504 -4.445,-0.658 -4.737,2.644 -1.031,-0.497 -0.137,-1.891 -1.206,-2.16 -3.628,5.067 -2.924,9.272 2.074,12.306 1.137,0.691 2.34,0.409 3.486,0.057 2.186,-0.67 3.601,0.141 4.471,2.147 0.898,0.23 1.095,-1.359 2.346,-0.694 3.435,1.827 3.546,6.803 0.092,9.211 -0.421,0.102 -0.842,0.205 -1.263,0.307 -0.194,0.585 -0.492,1.069 -1.153,1.207 -7.823,1.581 -13.459,7.265 -20.219,10.843 -3.313,1.753 -4.034,5.691 -6.129,8.594 0.609,-2.993 0.456,-5.966 0.69,-8.91 0.136,-1.708 1.103,-2.822 2.34,-3.976 4.275,-3.991 4.712,-7.591 1.066,-11.767 -1.889,-2.163 -3.828,-4.284 -5.529,-6.592 -3.039,-4.123 -7.927,-4.065 -12.148,-5.496 -0.849,-0.288 -1.961,-0.271 -1.905,1.214 0.032,0.865 -0.502,0.896 -1.218,1.109 -3.559,1.062 -3.542,1.118 -3.783,5.258 0.232,-0.19 0.461,-0.369 0.69,-0.548 l 0.147,0.33 c -0.273,0.043 -0.547,0.086 -0.82,0.13 -0.52,-0.58 -1.04,-1.16 -1.666,-1.858 -0.895,2.246 -0.062,3.902 1.722,4.608 2.626,1.04 4.824,4.22 8.32,1.803 4.246,-2.936 5.346,1.877 7.16,3.582 2.321,2.182 -0.264,3.73 -2.087,5.201 -2.888,2.33 -6.868,3.713 -7.613,8.082 1.25,0.133 1.045,1.066 0.784,1.747 -1.697,4.437 -2.566,9.025 -2.491,14.398 -1.864,-2.604 -1.785,-4.982 -1.721,-7.319 0.029,-1.072 0.034,-1.88 -1.375,-1.63 -0.693,4.575 -0.72,8.992 3.068,12.766 -3.393,-2.233 -6.44,-4.733 -10.432,-5.303 -4.094,1.304 -5.784,-2.309 -8.379,-4.079 -0.192,-0.132 -0.51,-0.078 -0.996,-0.138 0.701,4.017 -1.941,1.727 -3.206,1.591 -2.282,-0.245 -2.849,-2.937 -4.905,-3.935 -0.063,1.169 -0.119,2.211 -0.186,3.435 -1.428,-0.964 -2.695,-1.82 -3.961,-2.675 -4.678,-0.01 -6.127,-3.452 -7.476,-7.165 -1.176,1.016 -1.189,2.459 -1.515,3.299 -6.868,-5.3 -10.825,-13.016 -15.556,-20.311 -0.24,0.726 -0.426,1.292 -0.597,1.811 -0.452,0.121 -0.538,-0.024 -0.552,-0.406 -0.048,-1.329 -0.345,-2.679 -0.191,-3.979 0.63,-5.314 -2.803,-9.396 -5.74,-12.397 -3.847,-3.93 -9.374,-6.608 -15.607,-5.746 -1.636,0.227 -1.647,0.148 -2.618,2.766 -1.483,0.304 0.104,-3.27 -2.169,-1.806 -1.904,1.226 -3.826,2.464 -4.298,5.029 -0.194,1.056 1.103,1.915 0.199,2.944 -0.001,0.001 0.098,0.048 0.098,0.048 0.241,0.142 0.482,0.284 0.723,0.426 3.222,1.987 6.387,5.106 10.447,3.214 3.758,-1.753 5.111,0.514 6.634,2.847 0.863,1.321 1.343,2.891 2.008,4.343 3.423,7.483 4.236,15.994 9.043,22.938 0.379,0.548 1.248,1.645 0.026,1.851 -3.262,0.551 -1.784,3.032 -1.635,4.385 0.514,4.69 0.681,9.473 2.772,13.914 0.516,1.097 1.711,2.516 0.581,4.542 -1.145,-2.725 -2.114,-5.031 -3.083,-7.338 -1.963,0.883 -0.964,3.916 -3.656,5.049 0.492,-1.887 0.863,-3.264 1.209,-4.647 0.548,-2.188 1.916,-4.53 1.167,-6.588 -1.281,-3.522 -1.082,-7.248 -2.187,-10.739 -0.154,-0.487 0.352,-1.524 -0.787,-1.245 -0.399,0.098 -0.655,0.781 -0.976,1.196 -1.576,4.175 -4.697,6.961 -8.346,9.268 -0.078,0.049 -0.258,0.041 -0.322,-0.017 -0.089,-0.081 -0.113,-0.233 -0.165,-0.354 -1.635,-0.226 -1.469,0.988 -1.671,2.002 -0.471,2.36 -0.904,4.747 -2.177,6.889 -1.037,-0.623 -0.926,-1.47 -1.064,-2.217 -2.121,3.387 -1.351,7.818 -3.984,11.02 -0.543,2.159 -0.465,4.464 -1.521,6.503 0.9,4.035 -3.684,3.956 -4.838,6.449 -0.424,2.12 -0.297,4.031 -3.574,4.69 -2.532,0.508 -3.517,4.301 -5.878,6.054 -0.661,0.491 -0.261,1.681 0.318,2.53 0.323,0.474 0.634,1.354 0.41,1.733 -0.883,1.498 -3.131,3.397 -2.77,4.186 0.904,1.978 3.581,-0.025 5.011,0.834 2.731,1.64 2.901,-0.997 4.004,-1.98 1.213,-1.083 1.186,-3.302 3.262,-3.648 0.11,-0.182 0.178,-0.422 0.337,-0.538 6.848,-4.976 8.571,-13.792 14.553,-19.412 0.093,-0.086 0.237,-0.118 0.358,-0.175 1.7,-2.079 3.4,-4.158 5.802,-7.097 v 7.805 l -0.016,-0.035 c 0.125,0.308 0.251,0.616 0.377,0.923 0.213,0.773 0.426,1.546 0.639,2.319 0.721,1.082 1.442,2.165 2.162,3.248 0.571,0.362 1.662,0.761 1.167,1.422 -0.569,0.76 -1.265,-0.098 -1.74,-0.668 -0.514,-0.36 -1.029,-0.72 -1.64,-1.149 1.463,8.909 9.625,10.948 15.54,15.296 -3.361,-0.717 -6.363,-1.864 -9.081,-3.656 -0.665,-0.438 -1.291,-1.084 -1.879,0.067 l -0.016,-0.029 c 0.194,0.279 0.389,0.558 0.583,0.838 0.156,0.241 0.312,0.482 0.468,0.724 3.878,2.153 7.116,4.969 8.816,9.165 1.054,2.6 0.74,4.485 -2.847,3.912 -2.349,-0.375 -4.717,-0.629 -7.077,-0.937 -0.596,2.432 2.485,1.975 2.912,3.634 -6.22,0.919 -7.619,0.186 -8.385,-4.357 -3.234,4.416 -2.408,8.26 2.333,11.056 1.009,0.595 2.785,0.576 2.283,2.551 0.183,0.161 0.242,0.358 0.178,0.593 0.744,1.414 1.922,2.336 3.169,3.334 2.705,2.164 6.44,2.333 8.885,4.872 4.861,0.658 8.616,3.507 12.404,6.279 C 1.679,16.822 1.018,16.171 0.754,15.491 0.401,11.698 -3.478,10.925 -5.661,8.426 -2.126,8.102 -0.398,10.402 1.57,12.273 1.429,11.248 0.954,9.974 1.885,9.307 4.649,7.327 5.811,4.584 6.311,1.382 6.347,1.149 7.155,1.037 7.604,0.869 7.133,-0.817 7.214,-2.213 8.136,-3.968 c 1.148,-2.182 3.59,-4.519 3.358,-6.389 -0.461,-3.706 1.61,-2.987 3.516,-3.196 -0.021,-0.256 -0.059,-0.51 -0.116,-0.76 -0.728,-1.077 -3.73,-0.003 -2.737,-2.49 0.817,-2.049 1.135,-4.155 1.444,-6.905 2.444,2.544 5.47,3.365 7.134,5.963 l -0.146,0.147 0.127,-0.163 c 1.23,0.903 1.951,2.183 2.422,3.57 1.258,3.703 3.045,7.039 6.184,9.508 l 0.04,0.033 c 4.362,3.034 6.092,8.187 9.787,12.624 -0.357,-6.66 -1.303,-12.355 -5.153,-17.22 -1.496,-1.891 -2.579,-4.045 -3.105,-6.44 -0.779,-3.553 -2.361,-6.737 -4.779,-9.429 -3.829,-4.264 -8.639,-6.742 -15.048,-8.031 1.768,3.135 3.678,5.786 -0.839,7.635 -0.047,-2.665 0.124,-5.403 -3.437,-6.955 1.682,3.962 2.086,7.514 1.358,11.22 -0.902,-4.245 -1.873,-8.573 -5.077,-11.623 -3.099,-2.95 -6.69,-5.382 -10.066,-8.042 -0.208,0.266 -0.417,0.532 -0.626,0.798 2.166,2.339 4.499,4.547 6.459,7.048 3.29,4.197 3.329,4.721 2.688,8.783 -1.648,-2.889 -3.206,-5.721 -5.535,-7.908 -4.24,-3.981 -6.609,-8.922 -8.11,-14.421 -0.225,-0.825 -0.539,-1.692 0.143,-2.122 0.917,-0.578 1.412,0.439 1.819,1.066 1.164,1.793 2.109,3.77 4.482,5.057 0.049,-2.806 -1.917,-4.686 -1.616,-7.279 0.611,0.292 1.133,0.368 1.233,0.615 3.01,7.432 9.733,10.464 16.361,13.242 5.168,2.167 10.262,4.182 15.018,7.317 2.849,1.878 4.284,3.829 5.22,6.926 1.332,4.407 1.933,9.334 5.576,12.622 4.743,4.282 10.472,7.378 14.751,12.353 -0.325,-5.957 -3.27,-10.5 -6.764,-14.843 2.799,0.486 3.885,3.069 6.26,4.353 0.361,-5.277 -2.766,-8.181 -6.431,-10.815 2.786,-1.203 4.126,1.51 6.931,2.265 -2.192,-5.471 -6.386,-7.107 -11.31,-8.715 3.871,-1.312 6.705,0.95 10.029,1.29 -2.859,-5.255 -8.096,-5.953 -12.621,-7.998 h 8.345 c -5.122,-4.528 -10.87,-3.665 -16.708,-4.043 3.275,-2.083 6.652,-1.288 10.211,-1.699 -4.837,-4.062 -9.875,-1.875 -15.051,-1.346 2.79,-3.183 6.346,-2.106 9.985,-2.796 -4.538,-3.692 -8.639,-1.827 -13.14,-0.146 1.322,-2.51 3.544,-2.789 4.857,-4.141 -3.276,-1.431 -5.72,1.202 -8.666,1.735 0.398,-2.355 2.776,-2.535 3.702,-4.171 -2.928,-0.897 -5.026,1.079 -7.402,1.909 -0.347,-1.985 1.994,-2.179 1.975,-3.688 -2.419,-0.929 -4.48,0.868 -7.91,1.397 6.512,-4.553 -0.032,-2.447 -0.001,-3.369 0.113,-2.887 6.562,-0.99 4.599,-6.012 1.153,-0.151 2.797,-0.367 4.451,-0.584 0.233,2.983 -2.419,3.951 -3.802,5.984 2.152,0.777 4.178,0.16 6.166,1.579 1.953,1.394 4.907,0.271 7.139,-1.208 0.484,-0.583 1.666,-0.82 1.421,-1.722 -0.42,-1.548 -2.055,0.181 -2.858,-0.766 0.228,-0.261 0.359,-0.543 0.574,-0.64 3.771,-1.711 6.138,3.233 9.802,2.078 0.08,0.36 0.342,0.852 0.199,1.051 -0.238,0.33 -0.994,0.743 -1.089,0.653 -2.512,-2.379 -4.924,-0.1 -7.364,0.108 -1.091,0.902 -2.181,1.803 -3.289,2.719 3.018,1.68 5.598,0.083 8.307,-1.264 0.095,2.224 -2.569,2.076 -2.509,3.811 4.314,1.15 6.993,-2.116 10.42,-3.471 -0.539,-0.794 -1.811,-0.51 -1.701,-1.707 1.29,-0.487 2.238,0.535 3.355,0.791 1.323,0.304 2.313,1.541 2.112,2.505 -0.17,0.818 -1.689,1.163 -2.957,1.093 -2.556,-0.141 -4.849,0.71 -7.195,2.587 4.479,1.8 8.354,0.871 12.21,-0.718 2.413,-0.995 2.425,-0.966 3.89,1.833 -3.99,-1.329 -7.252,1.742 -11.764,1.297 2.237,1.805 4.244,2.13 6.219,2.9 -1.284,-0.022 -2.121,0.527 -2.747,1.587 1.599,0.628 3.181,1.264 4.774,1.869 0.855,0.325 1.061,0.567 0.791,0.767 -1.838,1.362 -0.04,1.875 0.631,2.066 2.861,0.81 3.601,3.39 3.67,5.507 0.088,2.677 1.46,4.394 2.598,6.466 1.33,2.42 4.062,3.946 4.378,6.975 l -0.097,-0.083 c 1.425,-0.308 1.997,0.236 1.672,1.675 l -0.067,-0.062 c 5.587,2.811 10.895,5.984 14.616,11.225 0.245,0.131 0.489,0.263 0.734,0.394 0.231,0.16 0.463,0.32 0.694,0.479 1.955,-0.938 0.662,-2.228 0.312,-3.348 -1.513,-4.831 -4.834,-8.426 -8.277,-11.928 -2.912,-1.794 -5.825,-3.588 -8.737,-5.382 0.219,-0.338 0.439,-0.677 0.658,-1.015 3.097,1.679 6.604,2.612 9.032,5.507 1.539,0.243 1.966,-0.445 1.275,-1.73 -1.524,-2.837 -2.547,-6.031 -5.425,-7.947 -3.868,-2.229 -8.643,-1.572 -12.453,-4.21 3.32,0.352 6.64,0.703 9.96,1.054"
             style="fill:#006aae;fill-opacity:1;fill-rule:nonzero;stroke:none"
             id="path138"
             inkscape:connector-curvature="0" /></g><g
           id="g140"
           transform="translate(173.8616,180.9476)"><path
             d="m 0,0 c -1.483,0.125 -1.868,-2.523 -3.832,-1.408 3.607,7.178 7.304,14.227 13.521,19.681 3.942,3.457 5.776,8.467 8.27,12.921 1.434,-0.665 1.227,-1.946 1.3,-3.116 C 18.253,23.187 18.113,18.049 15.175,13.707 13.761,12.358 12.383,10.97 10.926,9.669 7.832,6.904 3.911,5.097 1.508,1.53 l 0.067,0.062 c -1,-0.116 -1.603,-0.629 -1.672,-1.676 z"
             style="fill:#006aae;fill-opacity:1;fill-rule:nonzero;stroke:none"
             id="path142"
             inkscape:connector-curvature="0" /></g><g
           id="g144"
           transform="translate(187.5655,213.8506)"><path
             d="m 0,0 c -1.061,-7.445 -5.116,-13.229 -9.978,-18.7 -2.593,-2.917 -4.587,-6.366 -7.27,-9.37 1.071,5.848 1.993,11.628 6.285,16.314 3.633,3.967 7.978,7.51 9.372,13.109 C -0.278,1.823 -0.233,0.8 0,0"
             style="fill:#006aae;fill-opacity:1;fill-rule:nonzero;stroke:none"
             id="path146"
             inkscape:connector-curvature="0" /></g><g
           id="g148"
           transform="translate(156.119,111.7499)"><path
             d="M 0,0 C 0.727,0.063 1.454,0.124 1.665,-0.838 0.581,-1.609 0.281,-0.824 0,0"
             style="fill:#006aae;fill-opacity:1;fill-rule:nonzero;stroke:none"
             id="path150"
             inkscape:connector-curvature="0" /></g><g
           id="g152"
           transform="translate(193.0342,123.0302)"><path
             d="M 0,0 C -0.836,-0.445 -1.401,-1.113 -1.662,-2.029 -2.34,-1.552 -2.318,-0.814 -2.379,-0.106 -1.628,0.864 -0.841,1.046 0,0"
             style="fill:#006aae;fill-opacity:1;fill-rule:nonzero;stroke:none"
             id="path154"
             inkscape:connector-curvature="0" /></g><g
           id="g156"
           transform="translate(151.8933,89.6018)"><path
             d="M 0,0 C 0.273,-0.043 0.547,-0.086 0.82,-0.129 L 0.673,-0.459 C 0.444,-0.281 0.215,-0.102 -0.017,0.089 -0.02,0.101 0,0 0,0"
             style="fill:#006aae;fill-opacity:1;fill-rule:nonzero;stroke:none"
             id="path158"
             inkscape:connector-curvature="0" /></g><g
           id="g160"
           transform="translate(171.8257,216.5987)"><path
             d="m 0,0 c 1.848,3.022 3.696,6.044 5.613,9.178 1.619,-10.077 -12.186,-31.549 -22.735,-35.227 1.565,3.293 2.672,6.584 4.075,9.681 1.988,4.388 5.372,7.957 8.761,11.404 1.492,1.519 3.192,2.859 4.114,4.86 z"
             style="fill:#006aae;fill-opacity:1;fill-rule:nonzero;stroke:none"
             id="path162"
             inkscape:connector-curvature="0" /></g><g
           id="g164"
           transform="translate(183.3748,220.1969)"><path
             d="m 0,0 c 0.282,-4.914 -1.449,-9.293 -4.492,-12.884 -3.879,-4.577 -7.416,-9.28 -9.732,-14.884 0.301,5.313 0.833,10.612 4.352,14.819 3.493,4.174 6.835,8.438 9.887,12.936 z"
             style="fill:#006aae;fill-opacity:1;fill-rule:nonzero;stroke:none"
             id="path166"
             inkscape:connector-curvature="0" /></g><g
           id="g168"
           transform="translate(81.3867,93.2867)"><path
             d="M 0,0 C 1.146,-0.105 2.533,0.007 2.12,-1.817 2.028,-2.221 1.404,-2.846 1.104,-2.804 -0.69,-2.555 0.233,-1.03 -0.059,-0.058 Z"
             style="fill:#006aae;fill-opacity:1;fill-rule:nonzero;stroke:none"
             id="path170"
             inkscape:connector-curvature="0" /></g></g></g></g></svg>