<svg xmlns="http://www.w3.org/2000/svg" xmlns:xlink="http://www.w3.org/1999/xlink" width="1920" height="578" viewBox="0 0 1920 578">
  <defs>
    <clipPath id="clip-Web_1920_1">
      <rect width="1920" height="578"/>
    </clipPath>
  </defs>
  <g id="Web_1920_1" data-name="Web 1920 – 1" clip-path="url(#clip-Web_1920_1)">
    <g id="Logomarca" transform="translate(1315.668 -848.946)">
      <path id="Caminho_9" data-name="Caminho 9" d="M229.161,1427.5H207.77a2.376,2.376,0,0,1-2.468-2.468v-35.79H177.739v35.79a2.551,2.551,0,0,1-2.674,2.468H153.674a2.551,2.551,0,0,1-2.674-2.468v-92.559a2.551,2.551,0,0,1,2.674-2.468h21.391a2.551,2.551,0,0,1,2.674,2.468V1366H205.3v-33.527A2.376,2.376,0,0,1,207.77,1330h21.391a2.551,2.551,0,0,1,2.674,2.468v92.559A2.551,2.551,0,0,1,229.161,1427.5Z" transform="translate(-9.749 -5.56)" fill="#424242"/>
      <path id="Caminho_10" data-name="Caminho 10" d="M1188.7,1428.73c-20.569,0-39.7-6.376-39.7-38.258v-57.8a2.911,2.911,0,0,1,2.88-2.674h21.186a2.723,2.723,0,0,1,2.674,2.674v57.8c0,11.93,3.7,15.838,12.958,15.838,9.462,0,13.164-3.908,13.164-15.838v-57.8a2.723,2.723,0,0,1,2.674-2.674h21.186a2.911,2.911,0,0,1,2.88,2.674v57.8C1228.6,1422.354,1209.472,1428.73,1188.7,1428.73Z" transform="translate(-802.473 -5.56)" fill="#424242"/>
      <path id="Caminho_11" data-name="Caminho 11" d="M1683.444,1421.524c-4.937.823-13.164,1.646-25.917,1.646-16.661,0-33.527-3.908-33.527-29.414v-41.343c0-25.3,16.866-29.413,33.527-29.413a192.366,192.366,0,0,1,25.917,1.646c1.646.206,2.674,1.028,2.674,2.674v16.044a2.723,2.723,0,0,1-2.674,2.674H1656.91c-4.731,0-6.17,1.44-6.17,6.376v9.667h32.293a2.551,2.551,0,0,1,2.468,2.674v15.427a2.55,2.55,0,0,1-2.468,2.674h-32.293v10.9c0,5.142,1.44,6.582,6.17,6.582h26.534a2.723,2.723,0,0,1,2.674,2.674v16.044C1686.117,1420.5,1685.089,1421.318,1683.444,1421.524Z" transform="translate(-1179.772)" fill="#424242"/>
      <path id="Caminho_12" data-name="Caminho 12" d="M2088.75,1421.936h-24.271c-1.44,0-1.851-1.234-2.468-2.469l-16.455-31.676-1.029-.411c-1.234,0-5.553-.206-6.788-.206v32.293a2.551,2.551,0,0,1-2.674,2.469H2013.88a2.741,2.741,0,0,1-2.88-2.469V1333.49c0-6.376,2.262-7.816,7.61-8.639a236.483,236.483,0,0,1,27.768-1.851c24.477,0,41.137,7.816,41.137,31.882v2.057c0,14.192-7.816,22.42-16.044,25.917l19.129,35.79a3.811,3.811,0,0,1,.411,1.44A2.094,2.094,0,0,1,2088.75,1421.936Zm-27.768-67.054h0c0-6.171-4.319-9.256-13.164-9.256-.823,0-9.256.206-10.079.206v20.774c.617.206,8.845.206,9.667.206,10.079,0,13.575-3.5,13.575-9.667Z" transform="translate(-1487.171)" fill="#424242"/>
      <path id="Caminho_13" data-name="Caminho 13" d="M616.809,1349.015a50.9,50.9,0,0,1,72.2,0c10.079,9.873,15.015,21.8,15.015,36a51.05,51.05,0,0,1-87.211,36,49.22,49.22,0,0,1-14.809-36C602,1370.818,606.936,1358.888,616.809,1349.015Zm63.352,63.146h0a38.485,38.485,0,0,0-.206-54.3,38.486,38.486,0,0,0-54.1,0,38.738,38.738,0,0,0,0,54.3c7.4,7.4,16.455-3.5,27.151-3.5C663.5,1408.664,672.551,1419.566,680.161,1412.161Z" transform="translate(-367.984 -8.737)" fill="#2c4a6b"/>
      <path id="Caminho_24" data-name="Caminho 24" d="M691.268,1443a38.4,38.4,0,0,1-65.408,27.151A37.6,37.6,0,0,1,614.753,1443a36.932,36.932,0,0,1,11.107-27.151h0l-9.05-8.845c-9.873,9.873-14.809,21.8-14.809,36a50.914,50.914,0,0,0,51.01,51.01,51.267,51.267,0,0,0,51.01-51.01c0-14.192-4.937-26.122-15.015-36l-8.845,8.845A36.932,36.932,0,0,1,691.268,1443Z" transform="translate(-367.984 -66.722)" fill="#2777bc"/>
      <path id="Caminho_25" data-name="Caminho 25" d="M709.61,1464.442a21.872,21.872,0,0,1,6.582-16.249,22.686,22.686,0,0,1,16.249-6.582,22.835,22.835,0,0,1,16.043,39.08h0l5.554,5.348h0a30.791,30.791,0,0,0,0-43.194,30.543,30.543,0,0,0-43.194,43.194l5.348-5.348A21.872,21.872,0,0,1,709.61,1464.442Z" transform="translate(-447.415 -88.169)" fill="#2777bc"/>
    </g>
    <g id="Grupo_11" data-name="Grupo 11" transform="translate(-529.5 -253.979)">
      <line id="Linha_1" data-name="Linha 1" x1="1432.168" transform="translate(529.5 783.764)" fill="none" stroke="#059afa" stroke-width="1"/>
      <g id="Grupo_10" data-name="Grupo 10" transform="translate(534.425 254.284)">
        <g id="Grupo_9" data-name="Grupo 9" transform="translate(0 0)">
          <path id="Subtração_3" data-name="Subtração 3" d="M1621.6,217.714a148.133,148.133,0,0,1-29.664-2.654,71.609,71.609,0,0,1-22.477-8.47,57.132,57.132,0,0,1-16.113-14.282,69.886,69.886,0,0,1-10.483-20.92,143.267,143.267,0,0,1-5.768-27.557,311.083,311.083,0,0,1-1.739-34.974,311.038,311.038,0,0,1,1.739-34.973c.587-5.092,1.38-10.025,2.358-14.661l46.5,63.961c.05,2.874.183,6.34.394,10.3a106.848,106.848,0,0,0,1.006,10.8c.423,2.6,1.055,5.665,1.877,9.11a28.023,28.023,0,0,0,3.021,8.056,52.628,52.628,0,0,0,4.487,6.089,17.75,17.75,0,0,0,6.225,4.806,44.683,44.683,0,0,0,8.195,2.7,50.122,50.122,0,0,0,20.873,0,47.145,47.145,0,0,0,8.194-2.656,16.486,16.486,0,0,0,6.18-4.851,73.785,73.785,0,0,0,4.487-6.134,25.773,25.773,0,0,0,3.022-8.058c.789-3.463,1.405-6.528,1.83-9.109a104.843,104.843,0,0,0,1.008-10.8c.244-4.606.382-8.5.412-11.582.029-3.008.045-7.2.046-12.459l40.376-70.229c.957,2.261,1.849,4.668,2.653,7.156a143.153,143.153,0,0,1,5.768,27.558,310.844,310.844,0,0,1,1.74,34.973,310.889,310.889,0,0,1-1.74,34.974,143.146,143.146,0,0,1-5.768,27.557,69.839,69.839,0,0,1-10.482,20.92,57.356,57.356,0,0,1-16.067,14.282,71.064,71.064,0,0,1-22.431,8.47A148.128,148.128,0,0,1,1621.6,217.714Zm-213.321,0c-13.092,0-25.706-.524-37.491-1.556a318.052,318.052,0,0,1-33.555-4.669V6.5a321.4,321.4,0,0,1,33.92-4.875C1382.939.547,1395.43,0,1408.277,0a216.784,216.784,0,0,1,22.156,1.052,116.274,116.274,0,0,1,18.541,3.342,98.971,98.971,0,0,1,15.152,5.4,53.047,53.047,0,0,1,12.13,7.644,66.289,66.289,0,0,1,9.43,9.751,55.874,55.874,0,0,1,7.049,12.039,101.867,101.867,0,0,1,4.945,14.1,121.48,121.48,0,0,1,3.113,16.388c.759,6.046,1.313,12.253,1.647,18.448s.5,13.146.5,20.691-.169,14.506-.5,20.691-.888,12.4-1.647,18.448a121.413,121.413,0,0,1-3.113,16.388,101.85,101.85,0,0,1-4.945,14.1,55.842,55.842,0,0,1-7.049,12.039,66.3,66.3,0,0,1-9.43,9.75,53.057,53.057,0,0,1-12.13,7.645,98.946,98.946,0,0,1-15.152,5.4,116.3,116.3,0,0,1-18.541,3.342A216.911,216.911,0,0,1,1408.277,217.714ZM1402.51,41.2a118.6,118.6,0,0,0-15.381,1.189V175.416a117.261,117.261,0,0,0,15.381,1.1,80.3,80.3,0,0,0,18.539-1.923,63.271,63.271,0,0,0,13.321-4.577,23.155,23.155,0,0,0,8.972-8.24,65.037,65.037,0,0,0,5.539-10.026c1.245-2.945,2.2-7.289,2.838-12.909s1.008-10.326,1.1-13.962c.091-3.651.137-9.042.137-16.022s-.046-12.371-.137-16.022c-.091-3.636-.461-8.333-1.1-13.962s-1.593-9.963-2.838-12.909a65.038,65.038,0,0,0-5.539-10.026,23.164,23.164,0,0,0-8.972-8.239,63.232,63.232,0,0,0-13.321-4.578A80.327,80.327,0,0,0,1402.51,41.2ZM1031.717,217.714a162.214,162.214,0,0,1-27.421-2.1,95.09,95.09,0,0,1-21.514-6.181,53.336,53.336,0,0,1-16.206-10.757,65.424,65.424,0,0,1-11.49-15.153,80.937,80.937,0,0,1-7.462-20.05,172.12,172.12,0,0,1-3.983-24.719c-.79-8.71-1.19-18.767-1.19-29.892a317.066,317.066,0,0,1,1.648-34.47,144.039,144.039,0,0,1,5.63-27.375,67.641,67.641,0,0,1,10.575-21.1,58.934,58.934,0,0,1,16.57-14.465,74.9,74.9,0,0,1,23.484-8.7A159.463,159.463,0,0,1,1031.717,0a257.451,257.451,0,0,1,31.22,1.785,172.5,172.5,0,0,1,26.826,5.355l-4.4,38.91a290.52,290.52,0,0,0-46.051-3.936,68.555,68.555,0,0,0-16.663,1.83,50.658,50.658,0,0,0-12.085,4.532,23.518,23.518,0,0,0-8.24,7.92,53.675,53.675,0,0,0-5.173,9.888,55.177,55.177,0,0,0-2.746,12.634c-.639,5.291-1.023,9.988-1.144,13.961-.122,3.991-.184,9.366-.184,15.977,0,5.894.046,10.638.137,14.1s.338,7.69.733,12.543a58.381,58.381,0,0,0,1.877,11.581c.849,2.821,2,6.024,3.433,9.522a21.022,21.022,0,0,0,5.585,8.194,58.661,58.661,0,0,0,8.149,5.722,33.33,33.33,0,0,0,11.352,3.937,89.024,89.024,0,0,0,14.969,1.145,260.707,260.707,0,0,0,45.96-4.029l4.487,39.185a160.9,160.9,0,0,1-26.277,5.218A269.253,269.253,0,0,1,1031.717,217.714Zm-935.312,0a39.57,39.57,0,0,1-12.3-1.8,27.782,27.782,0,0,1-9.625-5.39,37.359,37.359,0,0,1-7.7-9.877A86.5,86.5,0,0,1,60.242,185.4L0,2.2H53.192l43.58,154.634L140.992,2.2h51.27l-59.6,183.2a75.716,75.716,0,0,1-6.329,14.683,39,39,0,0,1-8,9.991,30.329,30.329,0,0,1-9.9,5.734A36.495,36.495,0,0,1,96.405,217.714Zm194-1.648c-6.692,0-12.313-.092-16.708-.275s-9.55-.658-15.336-1.418a65.792,65.792,0,0,1-14.282-3.251,59.71,59.71,0,0,1-11.628-6.088,30.726,30.726,0,0,1-9.476-9.613,53.648,53.648,0,0,1-5.676-14.1,75.785,75.785,0,0,1-2.244-19.271V55.39A75.259,75.259,0,0,1,217.3,36.163a53.722,53.722,0,0,1,5.676-14.053,30.27,30.27,0,0,1,9.476-9.567A61,61,0,0,1,244.082,6.5,65.82,65.82,0,0,1,258.41,3.249c5.809-.759,10.953-1.221,15.29-1.373s9.973-.229,16.708-.229c19.014,0,39.128.555,59.785,1.649V42.572h-60.7a86.463,86.463,0,0,0-9.156.412,25.054,25.054,0,0,0-6.592,1.556,13.361,13.361,0,0,0-4.486,2.792,12.3,12.3,0,0,0-2.7,4.532,26.818,26.818,0,0,0-1.42,6.409,87.276,87.276,0,0,0-.366,8.743v20.05h81.573v40.1H264.773v23.254a71.507,71.507,0,0,0,.595,10.253,25.28,25.28,0,0,0,2.014,6.959,9.556,9.556,0,0,0,4.348,4.532,24.131,24.131,0,0,0,7.1,2.2,68.11,68.11,0,0,0,10.666.687h60.7v39.185C326.369,215.451,306.255,216.066,290.408,216.066Zm1623.34-.548h0l-56.855,0-41.932-77.82c-5.659-.061-12.1-.339-19.134-.824v78.644H1746.11V6.225a328.564,328.564,0,0,1,33.715-4.669C1791.564.524,1804.032,0,1816.881,0c7.345,0,14.061.231,19.959.686a143.959,143.959,0,0,1,18.128,2.61,77.7,77.7,0,0,1,16.2,5.081,58.771,58.771,0,0,1,13.275,8.422,45.16,45.16,0,0,1,10.346,12.314,63.772,63.772,0,0,1,6.363,16.937,97.514,97.514,0,0,1,2.334,22.247,104.137,104.137,0,0,1-2.4,23.415,57.459,57.459,0,0,1-7.21,17.877,51.369,51.369,0,0,1-11.765,12.977,58.276,58.276,0,0,1-16.067,8.72l47.7,84.229ZM1817.979,39.46a175.319,175.319,0,0,0-22.154,1.465V96.772a197.8,197.8,0,0,0,21.423.916,79.7,79.7,0,0,0,15.7-1.327,32.58,32.58,0,0,0,11.4-4.577,19.613,19.613,0,0,0,7.37-9.11,38.083,38.083,0,0,0,2.426-14.465,39.682,39.682,0,0,0-1.992-13.321,20.008,20.008,0,0,0-5.973-8.836,26.763,26.763,0,0,0-11.032-4.943A76.992,76.992,0,0,0,1817.979,39.46Zm-506.29,176.059h0l-52.917,0L1244.3,166.81h-66.559l-14.007,48.706h-51.453l62.073-181.185a86.4,86.4,0,0,1,6.97-15.621A43.271,43.271,0,0,1,1189.785,8.1,31.461,31.461,0,0,1,1200.1,2.026,37.426,37.426,0,0,1,1212.627,0a34.48,34.48,0,0,1,12.257,2.146,32.794,32.794,0,0,1,10.4,6.437,46.014,46.014,0,0,1,8.549,10.729,79.009,79.009,0,0,1,6.7,15.02l61.159,181.185Zm-101.076-162.6-21.7,75.257h43.946l-22.247-75.257Zm-649.389,162.6h0l-56.854,0L462.437,137.7c-5.659-.061-12.1-.339-19.135-.824v78.644H393.589V6.225A328.563,328.563,0,0,1,427.3,1.556C439.043.524,451.51,0,464.359,0c7.346,0,14.061.231,19.959.686A143.84,143.84,0,0,1,502.446,3.3a77.736,77.736,0,0,1,16.206,5.081A58.832,58.832,0,0,1,531.926,16.8a45.165,45.165,0,0,1,10.345,12.314,63.786,63.786,0,0,1,6.363,16.937A97.52,97.52,0,0,1,550.969,68.3a104.13,104.13,0,0,1-2.4,23.415,57.459,57.459,0,0,1-7.21,17.877,51.363,51.363,0,0,1-11.765,12.977,58.278,58.278,0,0,1-16.067,8.72l47.7,84.229ZM465.458,39.46A175.34,175.34,0,0,0,443.3,40.925V96.772a197.819,197.819,0,0,0,21.424.916,79.7,79.7,0,0,0,15.7-1.327,32.566,32.566,0,0,0,11.4-4.577,19.612,19.612,0,0,0,7.37-9.11,38.078,38.078,0,0,0,2.426-14.465,39.7,39.7,0,0,0-1.991-13.321,20,20,0,0,0-5.974-8.836,26.766,26.766,0,0,0-11.032-4.943A76.983,76.983,0,0,0,465.458,39.46Zm439,176.058H854.469V2.2h49.988v213.32Zm-168.092,0H686.56V55.39A75.292,75.292,0,0,1,688.8,36.163a53.707,53.707,0,0,1,5.676-14.053,30.271,30.271,0,0,1,9.476-9.567A61.63,61.63,0,0,1,715.536,6.5a65.022,65.022,0,0,1,14.329-3.251c5.839-.759,10.983-1.221,15.29-1.373s9.927-.229,16.663-.229c12.209,0,32.354.555,59.876,1.649V42.572H760.9a65.6,65.6,0,0,0-12.727.961,13.85,13.85,0,0,0-7.369,3.891,14.175,14.175,0,0,0-3.617,7.325,70.679,70.679,0,0,0-.824,12.267v20.05h81.482v40.1H736.365v88.349Zm-93.751,0H592.627V2.2h49.988v213.32Zm950.667-160.9-40.6-28.318c.233-.319.456-.618.663-.889a57.14,57.14,0,0,1,16.113-14.282,71.643,71.643,0,0,1,22.477-8.469,167.079,167.079,0,0,1,59.327,0,73.574,73.574,0,0,1,19.483,6.8l-29.533,36.216c-.313-.17-.643-.334-.983-.489a44.551,44.551,0,0,0-8.194-2.7,50.089,50.089,0,0,0-20.873,0,44.6,44.6,0,0,0-8.195,2.7,17.538,17.538,0,0,0-6.225,4.852c-1.309,1.576-2.472,3.116-3.458,4.578Z" transform="translate(0 51.649)" fill="#343434" stroke="rgba(0,0,0,0)" stroke-width="1"/>
          <path id="Caminho_8" data-name="Caminho 8" d="M19.8,107.7H7.283V-5.148H19.8ZM5.093,145.3a8.449,8.449,0,0,1,2.295-6,8.157,8.157,0,0,1,6.258-2.451A8.216,8.216,0,0,1,22.3,145.3a8.167,8.167,0,0,1-2.347,5.945,8.424,8.424,0,0,1-6.31,2.4,8.25,8.25,0,0,1-6.258-2.4A8.267,8.267,0,0,1,5.093,145.3ZM118.987-5.148l.417,19.3A44.813,44.813,0,0,1,135.258-1.759a41.2,41.2,0,0,1,20.964-5.476q18.148,0,27.013,10.221t8.97,30.664V107.7H179.793V33.546q-.1-15.123-6.414-22.528T153.2,3.613A31.569,31.569,0,0,0,132.7,10.862q-8.918,7.249-13.194,19.556V107.7H107.1V-5.148ZM272.828,50.234q0-26.283,11.734-41.876T316.424-7.234q22.841,0,34.836,18.044V-52.5h12.411V107.7H351.99l-.522-15.019q-11.994,17.1-35.253,17.105-19.5,0-31.446-15.7t-11.942-42.4Zm12.62,2.19q0,21.59,8.657,34.054T318.51,98.942q23.05,0,32.75-20.338V25.62q-9.7-22.007-32.541-22.007-15.749,0-24.51,12.359T285.448,52.425Zm208.18,57.364a48.989,48.989,0,0,1-26.022-7.092,48.335,48.335,0,0,1-18.1-19.765,61.62,61.62,0,0,1-6.466-28.421V50.026a66.405,66.405,0,0,1,6.31-29.308A50.2,50.2,0,0,1,466.928.223a43.355,43.355,0,0,1,24.406-7.457q20.547,0,32.593,14.028t12.046,38.33v6.988H455.455v2.4q0,19.191,11,31.968A35,35,0,0,0,494.15,99.255a40.667,40.667,0,0,0,17.679-3.65,39.21,39.21,0,0,0,13.924-11.681l7.822,5.945Q519.807,109.789,493.628,109.789ZM491.334,3.4A31.2,31.2,0,0,0,467.606,13.73q-9.648,10.326-11.733,27.743h67.69V40.117q-.521-16.271-9.283-26.492T491.334,3.4Zm213.082,49.02q0,26.388-11.681,41.876t-31.29,15.488q-23.154,0-35.461-16.271v57.573H613.572V-5.148h11.577l.626,15.958q12.2-18.044,35.357-18.044,20.234,0,31.759,15.332t11.525,42.554ZM691.9,50.234q0-21.59-8.865-34.106T658.316,3.613q-11.473,0-19.713,5.528T625.983,25.2V79.334a33.139,33.139,0,0,0,12.829,14.81q8.344,5.111,19.712,5.111,15.749,0,24.562-12.568T691.9,50.234Zm137.257,59.555a48.988,48.988,0,0,1-26.023-7.092,48.335,48.335,0,0,1-18.1-19.765,61.623,61.623,0,0,1-6.466-28.421V50.026a66.407,66.407,0,0,1,6.31-29.308A50.2,50.2,0,0,1,802.457.223a43.354,43.354,0,0,1,24.406-7.457q20.547,0,32.593,14.028T871.5,45.124v6.988H790.984v2.4q0,19.191,11,31.968a35,35,0,0,0,27.691,12.777,40.666,40.666,0,0,0,17.679-3.65,39.208,39.208,0,0,0,13.924-11.681l7.822,5.945Q855.336,109.789,829.157,109.789ZM826.862,3.4A31.2,31.2,0,0,0,803.134,13.73Q793.487,24.055,791.4,41.473h67.69V40.117q-.521-16.271-9.283-26.492T826.862,3.4ZM961.095-5.148l.417,19.3A44.812,44.812,0,0,1,977.365-1.759a41.2,41.2,0,0,1,20.964-5.476q18.148,0,27.013,10.221t8.97,30.664V107.7H1021.9V33.546q-.1-15.123-6.414-22.528T995.3,3.613a31.569,31.569,0,0,0-20.495,7.249q-8.918,7.249-13.194,19.556V107.7H949.2V-5.148Zm153.841,55.383q0-26.283,11.733-41.876t31.864-15.593q22.841,0,34.836,18.044V-52.5h12.412V107.7H1194.1l-.521-15.019q-11.995,17.1-35.253,17.105-19.5,0-31.446-15.7t-11.942-42.4Zm12.62,2.19q0,21.59,8.657,34.054t24.406,12.464q23.05,0,32.75-20.338V25.62q-9.7-22.007-32.541-22.007-15.749,0-24.51,12.359T1127.556,52.425Zm208.18,57.364a48.988,48.988,0,0,1-26.022-7.092,48.334,48.334,0,0,1-18.1-19.765,61.622,61.622,0,0,1-6.466-28.421V50.026a66.408,66.408,0,0,1,6.31-29.308A50.2,50.2,0,0,1,1309.036.223a43.355,43.355,0,0,1,24.406-7.457q20.547,0,32.594,14.028t12.047,38.33v6.988h-80.519v2.4q0,19.191,11,31.968a35,35,0,0,0,27.691,12.777,40.667,40.667,0,0,0,17.679-3.65,39.209,39.209,0,0,0,13.924-11.681l7.823,5.945Q1361.915,109.789,1335.736,109.789ZM1333.441,3.4a31.2,31.2,0,0,0-23.728,10.326q-9.648,10.326-11.734,27.743h67.69V40.117q-.521-16.271-9.282-26.492T1333.441,3.4Zm134.233-8.553.417,19.3a44.815,44.815,0,0,1,15.854-15.906,41.2,41.2,0,0,1,20.964-5.476q18.148,0,27.013,10.221t8.97,30.664V107.7H1528.48V33.546q-.1-15.123-6.414-22.528t-20.182-7.405a31.569,31.569,0,0,0-20.495,7.249q-8.918,7.249-13.194,19.556V107.7h-12.411V-5.148Zm178.247-28.891V-5.148h23.363V5.073h-23.363v75.2q0,9.387,3.39,13.976t11.317,4.589a77.639,77.639,0,0,0,10.117-1.043l.521,10.221q-4.9,1.773-13.35,1.773-12.829,0-18.67-7.457t-5.84-21.955V5.073h-20.755V-5.148H1633.4V-34.039Zm146.331,143.828a48.988,48.988,0,0,1-26.022-7.092,48.333,48.333,0,0,1-18.1-19.765,61.619,61.619,0,0,1-6.467-28.421V50.026a66.406,66.406,0,0,1,6.31-29.308A50.2,50.2,0,0,1,1765.552.223a43.354,43.354,0,0,1,24.406-7.457q20.547,0,32.593,14.028t12.046,38.33v6.988h-80.519v2.4q0,19.191,11,31.968a35.005,35.005,0,0,0,27.691,12.777,40.668,40.668,0,0,0,17.679-3.65,39.212,39.212,0,0,0,13.924-11.681l7.822,5.945Q1818.431,109.789,1792.252,109.789ZM1789.957,3.4a31.2,31.2,0,0,0-23.728,10.326q-9.647,10.326-11.734,27.743h67.69V40.117q-.521-16.271-9.283-26.492T1789.957,3.4Z" transform="translate(80.478 318.14)" fill="#343434"/>
          <path id="Caminho_4" data-name="Caminho 4" d="M0,63.048l85.625,131.03L211.3,0,88.571,137.861Z" transform="translate(1524.823 11.059) rotate(-3)" fill="#3fa9ff"/>
        </g>
      </g>
    </g>
  </g>
</svg>
